HIERARCHY
ROOT ui
{
	 OFFSET 0 0 0
	 CHANNELS 3 XPosition YPosition Z Position
	 EndSite
	 {
	 OFFSET 0 -1 0
	 }
}
ROOT li
{
	 OFFSET 0 0 0
	 CHANNELS 3 XPosition YPosition Z Position
	 EndSite
	 {
	 OFFSET 0 -1 0
	 }
}
ROOT ul
{
	 OFFSET 0 0 0
	 CHANNELS 3 XPosition YPosition Z Position
	 EndSite
	 {
	 OFFSET 0 -1 0
	 }
}
ROOT ll
{
	 OFFSET 0 0 0
	 CHANNELS 3 XPosition YPosition Z Position
	 EndSite
	 {
	 OFFSET 0 -1 0
	 }
}
ROOT tt
{
	 OFFSET 0 0 0
	 CHANNELS 3 XPosition YPosition Z Position
	 EndSite
	 {
	 OFFSET 0 -1 0
	 }
}
ROOT tb
{
	 OFFSET 0 0 0
	 CHANNELS 3 XPosition YPosition Z Position
	 EndSite
	 {
	 OFFSET 0 -1 0
	 }
}
ROOT td
{
	 OFFSET 0 0 0
	 CHANNELS 3 XPosition YPosition Z Position
	 EndSite
	 {
	 OFFSET 0 -1 0
	 }
}
ROOT v
{
	 OFFSET 0 0 0
	 CHANNELS 3 XPosition YPosition Z Position
	 EndSite
	 {
	 OFFSET 0 -1 0
	 }
}
ROOT bn
{
	 OFFSET 0 0 0
	 CHANNELS 3 XPosition YPosition Z Position
	 EndSite
	 {
	 OFFSET 0 -1 0
	 }
}
MOTION
Frames: 10
Frame Time: 0.002
0.007800233840942383	-0.0018622299432754516	0		0.5690537109375	-2.812599853515625	0		-0.9795344848632812	0.14666424560546876	0		-0.19730455017089843	-3.52470947265625	0		2.459478515625	-2.0155958251953123	0		3.816499755859375	-1.1643663330078124	0		4.98507275390625	-0.6698704223632812	0		5.89717041015625	0.33846673583984377	0		-0.07416136169433593	5.91749658203125	0		
-0.04505393218994141	-2.737109959125519E-4	0		0.513120361328125	-2.807999267578125	0		-0.9743515014648437	0.1506138916015625	0		-0.2013758087158203	-3.529685791015625	0		2.4686083984375	-2.008833251953125	0		3.78881884765625	-1.1442269287109375	0		4.9772529296875	-0.6639974975585937	0		5.89731494140625	0.3381950378417969	0		-0.21186221313476564	5.912083984375	0		
0.008023218154907226	-0.0019349750280380248	0		0.5789620361328125	-2.82083349609375	0		-0.960218994140625	0.1534451904296875	0		-0.20039234924316407	-3.527730712890625	0		2.4636142578125	-2.0099078369140626	0		3.821760498046875	-1.1537967529296875	0		4.9663740234375	-0.6600830078125	0		5.88450341796875	0.34508514404296875	0		-0.20661849975585939	5.90599267578125	0		
-0.019960027694702148	-0.004655435085296631	0		0.530061279296875	-2.8083271484375	0		-0.9610693359375	0.1614388427734375	0		-0.19742665100097656	-3.5248095703125	0		2.48385400390625	-1.988278564453125	0		3.79727978515625	-1.11068505859375	0		4.970689453125	-0.6363384399414063	0		5.893564453125	0.34472946166992186	0		-0.21030885314941405	5.91099658203125	0		
0.012114977836608887	9.076390266418458E-4	0		0.5709697265625	-2.809885986328125	0		-0.8979561157226562	0.16966368103027343	0		-0.20360704040527344	-3.531791748046875	0		2.4528154296875	-1.9870457763671876	0		3.790159423828125	-1.11877392578125	0		4.9527890625	-0.6273231201171875	0		5.88049951171875	0.3376490783691406	0		-0.044772258758544924	5.9399931640625	0		
-0.04494110107421875	-4.8585200309753416E-4	0		0.5418650512695312	-2.809625	0		-0.89798828125	0.16961843872070312	0		-0.17482847595214843	-3.54019677734375	0		2.469704345703125	-1.9893758544921876	0		3.78931982421875	-1.0999259033203126	0		4.95274072265625	-0.6275059204101563	0		5.8812705078125	0.3204236755371094	0		-0.19305201721191406	5.90768017578125	0		
0.00796729803085327	-0.0021879758834838867	0		0.5646474609375	-2.81698291015625	0		-0.8980608520507812	0.16956167602539063	0		-0.2089502410888672	-3.537865478515625	0		2.444921630859375	-1.96120654296875	0		3.792280517578125	-1.0951136474609375	0		4.938845703125	-0.611509521484375	0		5.88528369140625	0.32718145751953126	0		-0.05874499893188476	5.92901904296875	0		
-0.04512537384033203	-6.401849985122681E-4	0		0.5245086059570313	-2.815598388671875	0		-0.9721492919921875	0.17137326049804688	0		-0.20911538696289061	-3.537943115234375	0		2.4537099609375	-1.9674332275390625	0		3.771725830078125	-1.0470098876953124	0		4.93487255859375	-0.59961767578125	0		5.8851806640625	0.32700576782226565	0		-0.2119488067626953	5.913755859375	0		
0.01481304931640625	0.004561673164367676	0		0.5704119873046875	-2.810237548828125	0		-0.9631931762695313	0.17819281005859375	0		-0.20827749633789064	-3.537037841796875	0		2.45277001953125	-1.94953955078125	0		3.761287353515625	-1.0720230712890626	0		4.9227509765625	-0.598619384765625	0		5.88505615234375	0.3268449401855469	0		-0.19307432556152343	5.90744775390625	0		
0.01467923355102539	0.00447286605834961	0		0.5682130737304687	-2.81330810546875	0		-0.8993178100585938	0.1783531951904297	0		-0.14960723876953125	-3.550824951171875	0		2.462686279296875	-1.9437733154296875	0		3.779628662109375	-1.0313681640625	0		4.9108154296875	-0.581614501953125	0		5.8808310546875	0.31874264526367185	0		-0.2272032470703125	5.90276611328125	0		
